<svg width="109" height="34" viewbox="0 0 109 34" fill="none" xmlns="http://www.w3.org/2000/svg">
  <path fill-rule="evenodd" clip-rule="evenodd" d="M15.6634 0.237065C15.4777 0.107419 15.2488 0.328515 15.3733 0.517325C17.4522 3.67035 24.3627 14.1612 25.3173 15.736C25.4599 15.9713 25.6234 16.2301 25.7987 16.5077L25.7988 16.5078C26.7809 18.0628 28.1342 20.2054 28.2653 22.0794C28.2807 22.2999 28.5864 22.3447 28.6633 22.1373C28.7874 21.8029 28.9194 21.4038 29.0425 20.9478C30.5963 15.1923 28.3398 9.08493 23.4391 5.66434L15.6634 0.237065ZM14.3849 0.510656L5.07766 15.7818C5.00466 15.9015 4.83508 15.9148 4.74453 15.8077C3.92517 14.8375 0.872595 10.7102 4.64984 6.94847C8.0966 3.51585 12.4868 1.06846 14.1139 0.222592C14.2985 0.126624 14.4929 0.333391 14.3849 0.510656ZM13.8647 33.7633C14.0504 33.893 14.2793 33.6719 14.1548 33.4831C12.0759 30.3301 5.16539 19.8392 4.21078 18.2644C4.06816 18.0291 3.90466 17.7702 3.72933 17.4926C2.74714 15.9376 1.39391 13.795 1.26282 11.921C1.2474 11.7005 0.941654 11.6557 0.864742 11.8631C0.740702 12.1975 0.608644 12.5966 0.485567 13.0525C-1.06818 18.8081 1.18834 24.9155 6.08902 28.3361L13.8647 33.7633ZM24.4512 18.217L15.144 33.4881C15.0359 33.6654 15.2304 33.8722 15.415 33.7762C17.042 32.9303 21.4322 30.4829 24.879 27.0503C28.6562 23.2885 25.6037 19.1613 24.7843 18.1911C24.6938 18.0839 24.5242 18.0973 24.4512 18.217ZM57.2011 7.43112C59.5558 9.82264 60.742 13.4574 60.8418 18.0605C60.8455 18.2297 60.7113 18.37 60.542 18.3753L43.4194 18.9159C43.2462 18.9214 43.1103 19.068 43.1222 19.2408C43.3878 23.0955 45.3818 25.0088 48.9224 24.8971C51.9101 24.8027 53.418 23.4518 53.8873 21.0899C53.9183 20.9335 54.058 20.82 54.2174 20.829L60.1809 21.1654C60.373 21.1762 60.5094 21.3579 60.4622 21.5442C59.1367 26.777 55.1895 29.4971 49.0741 29.6902C45.293 29.8095 42.2492 28.694 40.1503 26.7733C37.7515 24.5712 36.4869 21.4126 36.3582 17.3457C36.2356 13.4725 37.1979 10.1466 39.5012 7.79607C41.5682 5.64687 44.4416 4.4415 48.2227 4.32213C52.0523 4.20122 55.0961 5.31672 57.2011 7.43112ZM48.3713 9.0184C46.3838 9.08115 44.9964 9.70651 44.1137 10.946C43.5205 11.7594 43.1751 12.7661 43.0397 13.9307C43.0183 14.1148 43.1681 14.2713 43.3536 14.2655L53.4734 13.946C53.6571 13.9402 53.7962 13.7773 53.7676 13.596C53.555 12.2502 53.1265 11.124 52.2939 10.3C51.3422 9.36078 50.1165 8.96331 48.3713 9.0184ZM86.7422 22.1018C87.3707 27.4566 92.1026 29.6984 97.7698 29.6984C103.444 29.6984 108.585 27.8577 108.585 22.045C108.585 16.3256 103.285 15.1366 98.9864 14.1721L98.8853 14.1494C95.6358 13.4228 93.8898 12.8415 93.8898 11.1946C93.8898 9.49919 95.5388 8.77259 97.5273 8.77259C99.8457 8.77259 101.411 9.87951 101.671 12.3473C101.69 12.5322 101.859 12.6688 102.043 12.6375L107.665 11.68C107.827 11.6522 107.94 11.4999 107.917 11.3365C107.16 6.04461 102.669 4.31617 97.4303 4.31617C92.1922 4.31617 87.4877 6.39907 87.4877 11.7274C87.4877 16.7167 91.7557 18.1698 96.4118 19.2839C100.243 20.2043 102.086 20.7856 102.086 22.3841C102.086 24.1763 100.68 25.1935 97.9153 25.1935C95.3081 25.1935 93.416 23.9884 93.1827 21.3211C93.1668 21.1385 93.005 20.9994 92.823 21.0226L87.0083 21.7649C86.8426 21.7861 86.7228 21.9361 86.7422 22.1018ZM85.127 14.3244C85.127 11.1759 84.8845 8.56014 82.9445 6.62256C81.3925 5.0725 79.598 4.34591 76.4939 4.34591C73.5653 4.34591 70.9715 5.34919 69.6069 7.93828C69.5375 8.07006 69.3159 8.02298 69.3159 7.87406V5.23809C69.3159 5.06638 69.1765 4.92719 69.0046 4.92719H62.8857C62.7137 4.92719 62.5744 5.06638 62.5744 5.23809V29.176C62.5744 29.3477 62.7137 29.4869 62.8857 29.4869H69.0531C69.225 29.4869 69.3644 29.3477 69.3644 29.176V15.9229C69.3644 10.9337 71.7894 9.52893 73.8749 9.52893C75.3299 9.52893 76.1544 9.67425 77.0275 10.4977C78.0945 11.5149 78.2885 12.6775 78.2885 14.9057V29.176C78.2885 29.3477 78.4278 29.4869 78.5997 29.4869H84.8157C84.9876 29.4869 85.127 29.3477 85.127 29.176V14.3244Z" fill="#0080BC"/>
</svg>