<svg width="109" height="48" viewbox="0 0 109 48" fill="none" xmlns="http://www.w3.org/2000/svg">
  <g clip-path="url(#clip0_682_3549)">
    <path d="M5.62288 11.2936C6.07196 10.4599 6.72006 9.74915 7.51002 9.22406L20.7676 0L7.18361 22.3801C7.18361 22.3801 5.99672 20.3817 5.53383 19.3705C4.95701 18.0991 4.6661 16.7175 4.68146 15.3222C4.69684 13.927 5.01817 12.5521 5.62288 11.2936ZM0.151292 26.732C0.300979 28.8723 0.907875 30.9559 1.93134 32.8434C2.95481 34.7311 4.37122 36.3789 6.08574 37.6768L20.7498 47.8646C20.7498 47.8646 11.5751 34.6908 3.83659 21.582C3.05314 20.197 2.52645 18.6828 2.28176 17.1119C2.17343 16.4005 2.17343 15.6768 2.28176 14.9655C2.07998 15.338 1.68831 16.1008 1.68831 16.1008C0.903657 17.6952 0.369269 19.4002 0.103817 21.1563C-0.0489746 23.0125 -0.0330848 24.8786 0.151292 26.732ZM37.5383 28.5059C37.0635 27.4948 35.8885 25.4962 35.8885 25.4962L22.3283 47.8646L35.5859 38.6464C36.3758 38.1214 37.024 37.4107 37.4731 36.577C38.0778 35.3185 38.399 33.9435 38.4145 32.5484C38.4299 31.1532 38.1389 29.7714 37.562 28.5L37.5383 28.5059ZM42.9208 21.1384C42.7711 18.9983 42.1642 16.9146 41.1408 15.0271C40.1173 13.1395 38.7009 11.4917 36.9863 10.1938L22.346 0C22.346 0 31.5148 13.1739 39.2593 26.2826C40.0406 27.668 40.5653 29.1822 40.8082 30.7528C40.9165 31.4641 40.9165 32.1878 40.8082 32.8992C41.01 32.5266 41.4016 31.7639 41.4016 31.7639C42.1863 30.1695 42.7207 28.4644 42.986 26.7083C43.1409 24.8523 43.127 22.9861 42.9446 21.1326L42.9208 21.1384Z" fill="url(#paint0_linear_682_3549)"/>
    <path d="M67.2372 33.9512V30.1083H58.1915V25.2603H66.3799V21.6243H58.1915V16.8354H67.2372V12.9925H54.1121V33.9512H67.2372Z" fill="url(#paint1_linear_682_3549)"/>
    <path d="M89.1153 33.9512V12.9925H85.0359V26.8566L76.3154 12.9925H71.2309V33.9512H75.3103V19.082L84.8289 33.9512H89.1153Z" fill="url(#paint2_linear_682_3549)"/>
    <path d="M108.167 17.9883C107.694 15.6234 105.743 12.5491 100.658 12.5491C96.6972 12.5491 93.3568 15.3869 93.3568 19.1116C93.3568 22.2746 95.5148 24.4326 98.8552 25.1125L101.782 25.7037C103.408 26.0289 104.324 26.9748 104.324 28.1868C104.324 29.6649 103.112 30.7586 100.924 30.7586C97.9683 30.7586 96.5199 28.8963 96.3425 26.827L92.5587 27.8321C92.8839 30.8178 95.3374 34.3946 100.895 34.3946C105.772 34.3946 108.462 31.1429 108.462 27.9208C108.462 24.9647 106.423 22.4816 102.609 21.7425L99.6829 21.1809C98.1457 20.8853 97.4067 19.9689 97.4067 18.816C97.4067 17.4266 98.7074 16.1555 100.688 16.1555C103.348 16.1555 104.294 17.9587 104.501 19.1116L108.167 17.9883Z" fill="url(#paint3_linear_682_3549)"/>
  </g>
  <defs>
    <linearGradient id="paint0_linear_682_3549" x1="72.2451" y1="53.5375" x2="46.6942" y2="-48.3727" gradientunits="userSpaceOnUse">
      <stop stop-color="#44BCF0"/>
      <stop offset="0.378795" stop-color="#7298F8"/>
      <stop offset="1" stop-color="#A099FF"/>
    </linearGradient>
    <linearGradient id="paint1_linear_682_3549" x1="72.2451" y1="53.5375" x2="46.6942" y2="-48.3727" gradientunits="userSpaceOnUse">
      <stop stop-color="#44BCF0"/>
      <stop offset="0.378795" stop-color="#7298F8"/>
      <stop offset="1" stop-color="#A099FF"/>
    </linearGradient>
    <linearGradient id="paint2_linear_682_3549" x1="72.2451" y1="53.5375" x2="46.6942" y2="-48.3727" gradientunits="userSpaceOnUse">
      <stop stop-color="#44BCF0"/>
      <stop offset="0.378795" stop-color="#7298F8"/>
      <stop offset="1" stop-color="#A099FF"/>
    </linearGradient>
    <linearGradient id="paint3_linear_682_3549" x1="72.2451" y1="53.5375" x2="46.6942" y2="-48.3727" gradientunits="userSpaceOnUse">
      <stop stop-color="#44BCF0"/>
      <stop offset="0.378795" stop-color="#7298F8"/>
      <stop offset="1" stop-color="#A099FF"/>
    </linearGradient>
    <clipPath id="clip0_682_3549">
      <rect width="108.585" height="48" fill="white"/>
    </clipPath>
  </defs>
</svg>