<svg width="33" height="32" viewbox="0 0 33 32" fill="none" xmlns="http://www.w3.org/2000/svg">
  <circle cx="16.5" cy="16" r="16" fill="#0080BC"/>
  <path fill-rule="evenodd" clip-rule="evenodd" d="M16.8386 6.84375C16.7694 6.73887 16.8965 6.61605 16.9997 6.68807L21.319 9.70287C24.0413 11.603 25.2948 14.9956 24.4317 18.1927C24.3633 18.446 24.29 18.6677 24.221 18.8535C24.1783 18.9686 24.0085 18.9438 23.9999 18.8213C23.9271 17.7803 23.1754 16.5901 22.6298 15.7263C22.5324 15.5721 22.4416 15.4283 22.3624 15.2976C21.8321 14.4228 17.9933 8.59523 16.8386 6.84375ZM11.1194 15.323L16.2895 6.84005C16.3495 6.74158 16.2415 6.62672 16.139 6.68003C15.2351 7.1499 12.7964 8.5094 10.8818 10.4162C8.78355 12.5058 10.4792 14.7985 10.9344 15.3374C10.9847 15.3969 11.0789 15.3895 11.1194 15.323ZM16.1617 25.1559C16.2308 25.2608 16.1037 25.3836 16.0005 25.3116L11.6812 22.2968C8.95894 20.3967 7.70546 17.0041 8.56856 13.8069C8.63692 13.5537 8.71028 13.332 8.77918 13.1462C8.82191 13.031 8.99175 13.0559 9.00031 13.1784C9.07313 14.2194 9.82484 15.4095 10.3704 16.2734L10.3705 16.2734L10.3706 16.2736C10.4679 16.4277 10.5587 16.5714 10.6379 16.7021C11.1682 17.5769 15.0069 23.4044 16.1617 25.1559ZM16.7112 25.1587L21.8812 16.6758C21.9218 16.6093 22.016 16.6018 22.0663 16.6614C22.5214 17.2003 24.2171 19.493 22.1189 21.5826C20.2042 23.4894 17.7655 24.8489 16.8617 25.3187C16.7592 25.3721 16.6511 25.2572 16.7112 25.1587Z" fill="#F6F6F6"/>
</svg>