<svg width="40" height="40" viewBox="0 0 40 40" fill="none" xmlns="http://www.w3.org/2000/svg">
  <circle cx="20" cy="20" r="20" fill="url(#paint0_linear_358_33274)"/>
  <path d="M12.2229 17.7735C12.4535 18.2664 13.0242 19.2406 13.0242 19.2406L19.6219 8.3335L13.1828 12.8301C12.7991 13.0861 12.4843 13.4325 12.2662 13.8389C11.9729 14.4521 11.8171 15.1218 11.8096 15.8014C11.8021 16.481 11.9432 17.1541 12.2229 17.7735Z" fill="white"/>
  <path d="M9.60864 21.365C9.68134 22.4083 9.97611 23.4241 10.4732 24.3442C10.9703 25.2644 11.6582 26.0677 12.491 26.7004L19.6133 31.6668C19.6133 31.6668 15.1572 25.2448 11.3986 18.8544C11.0181 18.1793 10.7622 17.4411 10.6434 16.6753C10.5908 16.3285 10.5908 15.9757 10.6434 15.6289C10.5454 15.8105 10.3552 16.1824 10.3552 16.1824C9.97406 16.9597 9.71451 17.7908 9.58558 18.6469C9.51137 19.5517 9.51909 20.4615 9.60864 21.365Z" fill="white"/>
  <path d="M27.779 22.2269C27.5484 21.734 26.9777 20.7597 26.9777 20.7597L20.38 31.6668L26.8191 27.1731C27.2028 26.9171 27.5176 26.5707 27.7357 26.1643C28.0294 25.5508 28.1855 24.8805 28.1929 24.2003C28.2004 23.5202 28.0591 22.8466 27.779 22.2269Z" fill="white"/>
  <path d="M30.3932 18.6353C30.3205 17.592 30.0258 16.5763 29.5287 15.6561C29.0316 14.736 28.3436 13.9326 27.5109 13.2999L20.3886 8.3335C20.3886 8.3335 24.8418 14.7556 28.6033 21.1459C28.9828 21.8213 29.2376 22.5594 29.3556 23.325C29.4082 23.6718 29.4082 24.0246 29.3556 24.3714C29.4536 24.1898 29.6438 23.8179 29.6438 23.8179C30.0249 23.0407 30.2845 22.2095 30.4134 21.3535C30.4886 20.4487 30.4818 19.5389 30.3932 18.6353Z" fill="white"/>
  <path d="M12.2662 13.8389C12.4843 13.4325 12.7991 13.0861 13.1828 12.8301L19.6219 8.3335L13.0242 19.2435C13.0242 19.2435 12.4477 18.2693 12.2229 17.7764C11.9428 17.1566 11.8015 16.483 11.8089 15.8029C11.8164 15.1227 11.9725 14.4524 12.2662 13.8389ZM9.60864 21.365C9.68134 22.4083 9.97611 23.4241 10.4732 24.3442C10.9703 25.2644 11.6582 26.0677 12.491 26.7004L19.6133 31.6668C19.6133 31.6668 15.1572 25.2448 11.3986 18.8544C11.0181 18.1793 10.7622 17.4411 10.6434 16.6753C10.5908 16.3285 10.5908 15.9757 10.6434 15.6289C10.5454 15.8105 10.3552 16.1824 10.3552 16.1824C9.97406 16.9597 9.71451 17.7908 9.58558 18.6469C9.51137 19.5517 9.51909 20.4615 9.60864 21.365ZM27.7674 22.2297C27.5368 21.7368 26.9661 20.7626 26.9661 20.7626L20.38 31.6668L26.8191 27.1731C27.2028 26.9171 27.5176 26.5707 27.7357 26.1643C28.0294 25.5508 28.1855 24.8805 28.1929 24.2003C28.2004 23.5202 28.0591 22.8466 27.779 22.2269L27.7674 22.2297ZM30.3817 18.6382C30.309 17.5949 30.0142 16.5791 29.5171 15.659C29.02 14.7388 28.3321 13.9355 27.4994 13.3028L20.3886 8.3335C20.3886 8.3335 24.8418 14.7556 28.6033 21.1459C28.9828 21.8213 29.2376 22.5594 29.3556 23.325C29.4082 23.6718 29.4082 24.0246 29.3556 24.3714C29.4536 24.1898 29.6438 23.8179 29.6438 23.8179C30.0249 23.0407 30.2845 22.2095 30.4134 21.3535C30.4886 20.4487 30.4818 19.5389 30.3932 18.6353L30.3817 18.6382Z" fill="white"/>
  <defs>
    <linearGradient id="paint0_linear_358_33274" x1="26.6434" y1="44.7407" x2="-12.2347" y2="-23.69" gradientUnits="userSpaceOnUse">
      <stop stop-color="#44BCF0"/>
      <stop offset="0.378795" stop-color="#7298F8"/>
      <stop offset="1" stop-color="#A099FF"/>
    </linearGradient>
  </defs>
</svg>