<svg width="48" height="48" viewbox="0 0 48 48" fill="none" xmlns="http://www.w3.org/2000/svg">
  <rect width="48" height="48" rx="24" fill="#3889FF"/>
  <g clip-path="url(#clip0_1210_6296)">
    <path fill-rule="evenodd" clip-rule="evenodd" d="M28.6667 20.6667C28.6667 23.244 26.5773 25.3333 24 25.3333C21.4227 25.3333 19.3333 23.244 19.3333 20.6667C19.3333 18.0893 21.4227 16 24 16C26.5773 16 28.6667 18.0893 28.6667 20.6667ZM26.6667 20.6667C26.6667 22.1394 25.4728 23.3333 24 23.3333C22.5272 23.3333 21.3333 22.1394 21.3333 20.6667C21.3333 19.1939 22.5272 18 24 18C25.4728 18 26.6667 19.1939 26.6667 20.6667Z" fill="white"/>
    <path d="M18.1526 31.5735C18.7368 30.7389 20.3406 28.6667 24 28.6667C27.6594 28.6667 29.2632 30.7389 29.8474 31.5735C30.1642 32.0259 30.7877 32.1359 31.2401 31.8192C31.6926 31.5025 31.8026 30.879 31.4859 30.4265C30.7368 29.3564 28.6073 26.6667 24 26.6667C19.3928 26.6667 17.2632 29.3564 16.5141 30.4265C16.1974 30.879 16.3074 31.5025 16.7599 31.8192C17.2123 32.1359 17.8359 32.0259 18.1526 31.5735Z" fill="white"/>
  </g>
  <defs>
    <clipPath id="clip0_1210_6296">
      <rect width="16" height="16" fill="white" transform="translate(16 16)"/>
    </clipPath>
  </defs>
</svg>