<svg width="24" height="24" viewbox="0 0 24 24" fill="none" xmlns="http://www.w3.org/2000/svg">
  <circle cx="12" cy="12" r="12" fill="url(#paint0_linear_460_9260)"/>
  <path d="M7.33362 10.664C7.47197 10.9597 7.81439 11.5443 7.81439 11.5443L11.773 5L7.90951 7.69796C7.6793 7.85154 7.49043 8.05943 7.35956 8.30327C7.18359 8.67114 7.0901 9.073 7.08562 9.48076C7.08114 9.88852 7.16578 10.2923 7.33362 10.664Z" fill="white"/>
  <path d="M5.76504 12.8189C5.80866 13.4449 5.98552 14.0543 6.28378 14.6064C6.58203 15.1585 6.9948 15.6405 7.49444 16.0201L11.7678 19C11.7678 19 9.09415 15.1468 6.839 11.3125C6.61069 10.9075 6.4572 10.4646 6.38589 10.0051C6.35433 9.79699 6.35433 9.58535 6.38589 9.37727C6.32709 9.48623 6.21295 9.70933 6.21295 9.70933C5.98429 10.1757 5.82856 10.6744 5.7512 11.188C5.70668 11.731 5.71131 12.2768 5.76504 12.8189Z" fill="white"/>
  <path d="M16.6672 13.336C16.5289 13.0403 16.1864 12.4557 16.1864 12.4557L12.2278 19L16.0913 16.3038C16.3215 16.1502 16.5104 15.9423 16.6413 15.6985C16.8175 15.3304 16.9111 14.9282 16.9156 14.5201C16.9201 14.112 16.8353 13.7079 16.6672 13.336Z" fill="white"/>
  <path d="M18.2358 11.1811C18.1922 10.5551 18.0153 9.94566 17.7171 9.39357C17.4188 8.84148 17.006 8.35948 16.5064 7.97986L12.233 5C12.233 5 14.905 8.85324 17.1618 12.6875C17.3895 13.0927 17.5424 13.5355 17.6132 13.9949C17.6448 14.203 17.6448 14.4147 17.6132 14.6227C17.672 14.5138 17.7861 14.2907 17.7861 14.2907C18.0148 13.8243 18.1705 13.3256 18.2479 12.812C18.293 12.2691 18.2889 11.7232 18.2358 11.1811Z" fill="white"/>
  <path d="M7.35956 8.30327C7.49043 8.05943 7.6793 7.85154 7.90951 7.69796L11.773 5L7.81438 11.546C7.81438 11.546 7.4685 10.9615 7.33361 10.6657C7.16551 10.2938 7.08073 9.88971 7.08521 9.48162C7.0897 9.07354 7.18333 8.67137 7.35956 8.30327ZM5.76504 12.8189C5.80866 13.4449 5.98552 14.0543 6.28378 14.6064C6.58203 15.1585 6.9948 15.6405 7.49444 16.0201L11.7678 19C11.7678 19 9.09415 15.1468 6.839 11.3125C6.61069 10.9075 6.4572 10.4646 6.38589 10.0051C6.35433 9.79699 6.35433 9.58535 6.38589 9.37727C6.32709 9.48623 6.21295 9.70933 6.21295 9.70933C5.98429 10.1757 5.82856 10.6744 5.7512 11.188C5.70668 11.731 5.71131 12.2768 5.76504 12.8189ZM16.6603 13.3377C16.5219 13.042 16.1795 12.4574 16.1795 12.4574L12.2278 19L16.0913 16.3038C16.3215 16.1502 16.5104 15.9423 16.6413 15.6985C16.8175 15.3304 16.9111 14.9282 16.9156 14.5201C16.9201 14.112 16.8353 13.7079 16.6672 13.336L16.6603 13.3377ZM18.2289 11.1828C18.1853 10.5568 18.0084 9.94739 17.7101 9.3953C17.4119 8.8432 16.9991 8.36121 16.4995 7.98159L12.233 5C12.233 5 14.905 8.85324 17.1618 12.6875C17.3895 13.0927 17.5424 13.5355 17.6132 13.9949C17.6448 14.203 17.6448 14.4147 17.6132 14.6227C17.672 14.5138 17.7861 14.2907 17.7861 14.2907C18.0148 13.8243 18.1705 13.3256 18.2479 12.812C18.293 12.2691 18.2889 11.7232 18.2358 11.1811L18.2289 11.1828Z" fill="white"/>
  <defs>
    <linearGradient id="paint0_linear_460_9260" x1="15.986" y1="26.8444" x2="-7.34084" y2="-14.214" gradientunits="userSpaceOnUse">
      <stop stop-color="#44BCF0"/>
      <stop offset="0.378795" stop-color="#7298F8"/>
      <stop offset="1" stop-color="#A099FF"/>
    </linearGradient>
  </defs>
</svg>